<svg xmlns="http://www.w3.org/2000/svg" width="304" height="144">
  <style>
    line, path, circle, rect, polygon{stroke:black;stroke-width:2;stroke-opacity:1;fill-opacity:1;stroke-linecap:round;stroke-linejoin:miter;}text{font-family:Iosevka Fixed, monospace;font-size:14px;}rect.backdrop{stroke:none;fill:white;}.broken{stroke-dasharray:8;}.filled{fill:black;}.bg_filled{fill:white;}.nofill{fill:white;}.end_marked_arrow{marker-end:url(#arrow);}.start_marked_arrow{marker-start:url(#arrow);}.end_marked_diamond{marker-end:url(#diamond);}.start_marked_diamond{marker-start:url(#diamond);}.end_marked_circle{marker-end:url(#circle);}.start_marked_circle{marker-start:url(#circle);}.end_marked_open_circle{marker-end:url(#open_circle);}.start_marked_open_circle{marker-start:url(#open_circle);}.end_marked_big_open_circle{marker-end:url(#big_open_circle);}.start_marked_big_open_circle{marker-start:url(#big_open_circle);}
    <!--separator-->
    
  </style>
  <defs>
    <marker id="arrow" viewBox="-2 -2 8 8" refX="4" refY="2" markerWidth="7" markerHeight="7" orient="auto-start-reverse">
      <polygon points="0,0 0,4 4,2 0,0"></polygon>
    </marker>
    <marker id="diamond" viewBox="-2 -2 8 8" refX="4" refY="2" markerWidth="7" markerHeight="7" orient="auto-start-reverse">
      <polygon points="0,2 2,0 4,2 2,4 0,2"></polygon>
    </marker>
    <marker id="circle" viewBox="0 0 8 8" refX="4" refY="4" markerWidth="7" markerHeight="7" orient="auto-start-reverse">
      <circle cx="4" cy="4" r="2" class="filled"></circle>
    </marker>
    <marker id="open_circle" viewBox="0 0 8 8" refX="4" refY="4" markerWidth="7" markerHeight="7" orient="auto-start-reverse">
      <circle cx="4" cy="4" r="2" class="bg_filled"></circle>
    </marker>
    <marker id="big_open_circle" viewBox="0 0 8 8" refX="4" refY="4" markerWidth="7" markerHeight="7" orient="auto-start-reverse">
      <circle cx="4" cy="4" r="3" class="bg_filled"></circle>
    </marker>
  </defs>
  <rect class="backdrop" x="0" y="0" width="304" height="144"></rect>
  <rect x="4" y="24" width="72" height="96" class="solid nofill" rx="0"></rect>
  <text x="42" y="44" >2021</text>
  <text x="42" y="92" >2022</text>
  <rect x="220" y="24" width="72" height="96" class="solid nofill" rx="0"></rect>
  <text x="10" y="12" >Server</text>
  <text x="226" y="12" >Client</text>
  <text x="98" y="60" >Command</text>
  <line x1="112" y1="88" x2="120" y2="88" class="solid"></line>
  <line x1="128" y1="88" x2="136" y2="88" class="solid"></line>
  <text x="98" y="108" >Data</text>
  <line x1="144" y1="88" x2="152" y2="88" class="solid"></line>
  <line x1="160" y1="88" x2="168" y2="88" class="solid"></line>
  <line x1="176" y1="88" x2="184" y2="88" class="solid"></line>
  <g>
    <polygon points="96,36 88,40 96,44" class="filled"></polygon>
    <line x1="96" y1="40" x2="200" y2="40" class="solid"></line>
    <polygon points="200,36 208,40 200,44" class="filled"></polygon>
  </g>
  <g>
    <polygon points="96,84 88,88 96,92" class="filled"></polygon>
    <line x1="96" y1="88" x2="104" y2="88" class="solid"></line>
  </g>
  <g>
    <line x1="192" y1="88" x2="200" y2="88" class="solid"></line>
    <polygon points="200,84 208,88 200,92" class="filled"></polygon>
  </g>
</svg>
